<?xml version="1.0" encoding="UTF-8"?>
<svg width="150" height="150" viewBox="0 0 150 150" fill="none" xmlns="http://www.w3.org/2000/svg">
  <defs>
    <linearGradient id="bitcoin-glow" x1="0%" y1="0%" x2="100%" y2="100%">
      <stop offset="0%" stop-color="#59CBE8"/>
      <stop offset="100%" stop-color="#2D88FF"/>
    </linearGradient>
    <filter id="neon-glow">
      <feGaussianBlur stdDeviation="2" result="blur"/>
      <feComposite in="SourceGraphic" in2="blur" operator="over"/>
    </filter>
  </defs>

  <!-- Outer Circle -->
  <circle cx="75" cy="75" r="70" stroke="url(#bitcoin-glow)" stroke-width="2" fill="none"/>
  
  <!-- Hexagonal Pattern -->
  <g opacity="0.2">
    <path d="M75 20 L120 45 L120 95 L75 120 L30 95 L30 45 Z" stroke="url(#bitcoin-glow)" fill="none"/>
    <path d="M75 40 L105 57.5 L105 82.5 L75 100 L45 82.5 L45 57.5 Z" stroke="url(#bitcoin-glow)" fill="none"/>
  </g>

  <!-- Bitcoin Symbol -->
  <g filter="url(#neon-glow)">
    <path d="M85 45C95 45 105 50 105 65C105 80 95 85 85 85L65 85L65 45L85 45Z" fill="url(#bitcoin-glow)" opacity="0.9"/>
    <path d="M87 65C97 65 107 70 107 85C107 100 97 105 87 105L65 105L65 65L87 65Z" fill="url(#bitcoin-glow)" opacity="0.9"/>
    <rect x="55" y="40" width="5" height="70" fill="url(#bitcoin-glow)" opacity="0.9"/>
    <rect x="45" y="40" width="5" height="70" fill="url(#bitcoin-glow)" opacity="0.9"/>
  </g>

  <!-- Data Points -->
  <g opacity="0.6">
    <circle cx="30" cy="45" r="2" fill="#59CBE8">
      <animate attributeName="opacity" values="1;0.3;1" dur="2s" repeatCount="indefinite"/>
    </circle>
    <circle cx="120" cy="95" r="2" fill="#59CBE8">
      <animate attributeName="opacity" values="0.3;1;0.3" dur="2s" repeatCount="indefinite"/>
    </circle>
  </g>

  <!-- Tech Lines -->
  <g opacity="0.3" stroke="url(#bitcoin-glow)" stroke-width="1">
    <line x1="20" y1="75" x2="40" y2="75">
      <animate attributeName="x2" values="40;50;40" dur="3s" repeatCount="indefinite"/>
    </line>
    <line x1="110" y1="75" x2="130" y2="75">
      <animate attributeName="x1" values="110;100;110" dur="3s" repeatCount="indefinite"/>
    </line>
  </g>
</svg>