<?xml version="1.0" encoding="UTF-8"?>
<svg width="200" height="200" viewBox="0 0 200 200" fill="none" xmlns="http://www.w3.org/2000/svg">
  <!-- AI Analysis Icon -->
  <symbol id="ai-analysis" viewBox="0 0 50 50">
    <circle cx="25" cy="25" r="20" stroke="currentColor" stroke-width="2" fill="none"/>
    <path d="M15 25 L22 32 L35 18" stroke="currentColor" stroke-width="2" fill="none"/>
    <path d="M25 5 L25 10 M5 25 L10 25 M25 40 L25 45 M40 25 L45 25"
          stroke="currentColor" stroke-width="2" stroke-linecap="round"/>
    <!-- Circuit Pattern -->
    <path d="M15 15 L20 20 M35 15 L30 20 M15 35 L20 30 M35 35 L30 30"
          stroke="currentColor" stroke-width="1" stroke-opacity="0.5"/>
  </symbol>

  <!-- Risk Management Icon -->
  <symbol id="risk-management" viewBox="0 0 50 50">
    <path d="M10 40 L20 20 L30 30 L40 10" stroke="currentColor" stroke-width="2" fill="none"/>
    <circle cx="20" cy="20" r="3" fill="currentColor"/>
    <circle cx="30" cy="30" r="3" fill="currentColor"/>
    <!-- Shield Shape -->
    <path d="M25 5 L45 15 L45 25 C45 35 35 45 25 45 C15 45 5 35 5 25 L5 15 L25 5Z"
          stroke="currentColor" stroke-width="2" fill="none" stroke-opacity="0.5"/>
  </symbol>

  <!-- Monitoring Icon -->
  <symbol id="monitoring" viewBox="0 0 50 50">
    <rect x="5" y="10" width="40" height="30" rx="2" stroke="currentColor" stroke-width="2" fill="none"/>
    <path d="M5 15 L45 15" stroke="currentColor" stroke-width="2"/>
    <!-- Pulse Line -->
    <path d="M10 25 L20 25 L25 15 L30 35 L35 25 L40 25"
          stroke="currentColor" stroke-width="2" fill="none"/>
    <!-- Action Lines -->
    <path d="M2 25 L5 25 M45 25 L48 25" stroke="currentColor" stroke-width="1" stroke-opacity="0.5"/>
  </symbol>

  <!-- Shared Effects -->
  <defs>
    <!-- Glow Effect -->
    <filter id="glow">
      <feGaussianBlur stdDeviation="2" result="coloredBlur"/>
      <feMerge>
        <feMergeNode in="coloredBlur"/>
        <feMergeNode in="SourceGraphic"/>
      </feMerge>
    </filter>

    <!-- Speed Lines Pattern -->
    <pattern id="speed-lines" x="0" y="0" width="10" height="10" patternUnits="userSpaceOnUse">
      <line x1="0" y1="0" x2="10" y2="10" stroke="currentColor" stroke-width="0.5" stroke-opacity="0.3"/>
    </pattern>

    <!-- Energy Burst -->
    <radialGradient id="energy-burst">
      <stop offset="0%" stop-color="currentColor" stop-opacity="0.5"/>
      <stop offset="100%" stop-color="currentColor" stop-opacity="0"/>
    </radialGradient>
  </defs>

  <!-- Action Effects -->
  <g class="action-effects">
    <circle cx="25" cy="25" r="24" fill="url(#energy-burst)"/>
    <rect width="50" height="50" fill="url(#speed-lines)"/>
  </g>
</svg>