<?xml version="1.0" encoding="UTF-8"?>
<svg width="40" height="40" viewBox="0 0 40 40" fill="none" xmlns="http://www.w3.org/2000/svg">
  <defs>
    <linearGradient id="tech-gradient" x1="0%" y1="0%" x2="100%" y2="100%">
      <stop offset="0%" stop-color="#2563EB"/>
      <stop offset="100%" stop-color="#60A5FA"/>
    </linearGradient>
    <filter id="glow">
      <feGaussianBlur stdDeviation="1" result="coloredBlur"/>
      <feMerge>
        <feMergeNode in="coloredBlur"/>
        <feMergeNode in="SourceGraphic"/>
      </feMerge>
    </filter>
  </defs>

  <!-- Background Circle -->
  <circle cx="20" cy="20" r="18" 
          fill="white" 
          stroke="url(#tech-gradient)" 
          stroke-width="2"/>

  <!-- Shield Design -->
  <g filter="url(#glow)">
    <!-- Shield Base -->
    <path d="M20 8
             L28 12
             L28 20
             C28 24
             24 28
             20 30
             C16 28
             12 24
             12 20
             L12 12
             L20 8Z"
          fill="none"
          stroke="url(#tech-gradient)"
          stroke-width="1.5"/>

    <!-- Shield Grid -->
    <path d="M16 12 L24 12" stroke="#60A5FA" stroke-width="0.5"/>
    <path d="M16 16 L24 16" stroke="#60A5FA" stroke-width="0.5"/>
    <path d="M16 20 L24 20" stroke="#60A5FA" stroke-width="0.5"/>
    <path d="M16 24 L24 24" stroke="#60A5FA" stroke-width="0.5"/>

    <!-- Shield Data Points -->
    <circle cx="16" cy="12" r="1" fill="#2563EB"/>
    <circle cx="24" cy="12" r="1" fill="#2563EB"/>
    <circle cx="16" cy="24" r="1" fill="#2563EB"/>
    <circle cx="24" cy="24" r="1" fill="#2563EB"/>

    <!-- Central Lock Icon -->
    <rect x="18" y="16" width="4" height="6" rx="1" fill="#2563EB"/>
    <path d="M17 16 C17 14 23 14 23 16" 
          stroke="#2563EB" 
          stroke-width="1.5" 
          fill="none"/>
  </g>

  <!-- Pulse Animation -->
  <circle cx="20" cy="20" r="16" 
          stroke="#2563EB" 
          stroke-width="0.5"
          stroke-dasharray="2 2"
          fill="none">
    <animate attributeName="r" 
             values="16;18;16" 
             dur="2s" 
             repeatCount="indefinite"/>
    <animate attributeName="opacity" 
             values="0.6;0.2;0.6" 
             dur="2s" 
             repeatCount="indefinite"/>
  </circle>
</svg>